<svg xmlns="http://www.w3.org/2000/svg" viewBox="0 0 24 24" height="24" width="24"><path d="M14.3 12.18a0.24 0.24 0 0 1 0 -0.35l9.26 -9.27a1.49 1.49 0 0 0 0 -2.12 1.51 1.51 0 0 0 -2.12 0L12.18 9.7a0.25 0.25 0 0 1 -0.36 0L2.56 0.44a1.51 1.51 0 0 0 -2.12 0 1.49 1.49 0 0 0 0 2.12l9.26 9.27a0.24 0.24 0 0 1 0 0.35L0.44 21.44a1.49 1.49 0 0 0 0 2.12 1.51 1.51 0 0 0 2.12 0l9.26 -9.26a0.25 0.25 0 0 1 0.36 0l9.26 9.26a1.51 1.51 0 0 0 2.12 0 1.49 1.49 0 0 0 0 -2.12Z" fill="currentcolor" stroke-width="1"></path></svg>